<svg width="375" height="588" viewBox="0 0 375 588" fill="none" xmlns="http://www.w3.org/2000/svg">
<rect width="26.4618" height="4.7339" transform="matrix(0.757375 0.65298 0.65298 -0.757375 96.1846 47.5859)" fill="#6070FF"/>
<ellipse cx="101.304" cy="59.2115" rx="5.5" ry="5" transform="rotate(52.9708 101.304 59.2115)" fill="#CBCDFF"/>
<rect x="160.824" y="549" width="68.0631" height="12.1762" transform="rotate(23.34 160.824 549)" fill="#EBEBFF"/>
<circle cx="216" cy="563.096" r="10" fill="#6070FF"/>
<path d="M303.907 465.5C305.426 463.69 306.498 461.548 307.036 459.247C307.573 456.945 307.562 454.55 307.001 452.254C306.441 449.958 305.348 447.827 303.81 446.032C302.273 444.237 300.335 442.83 298.152 441.924C295.97 441.017 293.604 440.638 291.248 440.816C288.891 440.994 286.61 441.724 284.588 442.948C282.566 444.171 280.861 445.854 279.611 447.859C278.36 449.864 277.6 452.136 277.39 454.49L283.841 455.063C283.96 453.722 284.393 452.428 285.106 451.286C285.818 450.144 286.79 449.185 287.941 448.488C289.093 447.791 290.393 447.375 291.735 447.273C293.078 447.172 294.425 447.388 295.669 447.905C296.912 448.421 298.016 449.223 298.892 450.245C299.768 451.268 300.391 452.482 300.71 453.79C301.029 455.098 301.036 456.462 300.73 457.773C300.423 459.084 299.813 460.305 298.947 461.336L303.907 465.5Z" fill="#EBEBFF"/>
<path d="M287.497 429C287.278 432.194 288.337 435.344 290.441 437.757C292.545 440.171 295.521 441.649 298.715 441.868C301.909 442.087 305.059 441.028 307.472 438.924C309.885 436.82 311.364 433.844 311.583 430.65L287.497 429Z" fill="#6070FF"/>
<circle cx="190.5" cy="13.5006" r="7" fill="white" stroke="#CBCDFF"/>
<circle cx="272.5" cy="216.501" r="5" fill="white" stroke="#CBCDFF"/>
<circle cx="29.5" cy="548.5" r="7" fill="white" stroke="#CBCDFF"/>
<path d="M390.241 74.9707C386.195 67.7882 380.514 61.6596 373.659 57.0809C366.803 52.5023 358.966 49.6024 350.782 48.616C342.597 47.6297 334.295 48.5846 326.548 51.4034C318.802 54.2222 311.827 58.8258 306.191 64.8413C300.554 70.8568 296.413 78.1152 294.103 86.0287C291.793 93.9422 291.379 102.289 292.895 110.392C294.411 118.495 297.813 126.127 302.828 132.671C307.842 139.215 314.326 144.485 321.756 148.057L331.543 127.696C327.31 125.661 323.616 122.658 320.759 118.931C317.903 115.203 315.964 110.855 315.101 106.238C314.237 101.622 314.473 96.8668 315.789 92.3585C317.105 87.8502 319.464 83.7151 322.675 80.2881C325.886 76.861 329.86 74.2384 334.273 72.6325C338.686 71.0266 343.416 70.4826 348.079 71.0446C352.741 71.6065 357.206 73.2586 361.112 75.867C365.017 78.4754 368.254 81.9669 370.559 86.0588L390.241 74.9707Z" fill="#6070FF"/>
<rect x="263" y="61.7906" width="95.5804" height="22.021" transform="rotate(-30 263 61.7906)" fill="#EBEBFF"/>
</svg>
